<mxfile host="app.diagrams.net" modified="2024-07-07T10:12:48.182Z" agent="Mozilla/5.0 (Macintosh; Intel Mac OS X 10_15_7) AppleWebKit/537.36 (KHTML, like Gecko) Chrome/126.0.0.0 Safari/537.36" version="24.6.4" etag="PhIAnisUC6-CqWynqgOA" type="device">
  <diagram id="aMpPRB_tjOAWZjzOc6ch" name="Страница — 1">
    <mxGraphModel dx="744" dy="651" grid="1" gridSize="10" guides="1" tooltips="1" connect="1" arrows="1" fold="1" page="1" pageScale="1" pageWidth="827" pageHeight="1169" math="0" shadow="0">
      <root>
        <mxCell id="0" />
        <mxCell id="1" parent="0" />
        <mxCell id="BrPFHCt6p-SdHY6ByWUd-7" style="edgeStyle=orthogonalEdgeStyle;rounded=0;orthogonalLoop=1;jettySize=auto;html=1;entryX=0.5;entryY=0;entryDx=0;entryDy=0;" edge="1" parent="1" source="BrPFHCt6p-SdHY6ByWUd-1" target="BrPFHCt6p-SdHY6ByWUd-5">
          <mxGeometry relative="1" as="geometry" />
        </mxCell>
        <mxCell id="BrPFHCt6p-SdHY6ByWUd-1" value="Frontend" style="whiteSpace=wrap;html=1;" vertex="1" parent="1">
          <mxGeometry x="270" y="270" width="120" height="60" as="geometry" />
        </mxCell>
        <mxCell id="BrPFHCt6p-SdHY6ByWUd-19" style="edgeStyle=orthogonalEdgeStyle;rounded=0;orthogonalLoop=1;jettySize=auto;html=1;" edge="1" parent="1" source="BrPFHCt6p-SdHY6ByWUd-2" target="BrPFHCt6p-SdHY6ByWUd-1">
          <mxGeometry relative="1" as="geometry" />
        </mxCell>
        <mxCell id="BrPFHCt6p-SdHY6ByWUd-2" value="User" style="shape=umlActor;verticalLabelPosition=bottom;verticalAlign=top;html=1;outlineConnect=0;" vertex="1" parent="1">
          <mxGeometry x="133" y="390" width="30" height="60" as="geometry" />
        </mxCell>
        <mxCell id="BrPFHCt6p-SdHY6ByWUd-4" value="DB" style="shape=cylinder3;whiteSpace=wrap;html=1;boundedLbl=1;backgroundOutline=1;size=15;" vertex="1" parent="1">
          <mxGeometry x="675" y="500" width="60" height="80" as="geometry" />
        </mxCell>
        <mxCell id="BrPFHCt6p-SdHY6ByWUd-8" style="edgeStyle=orthogonalEdgeStyle;rounded=0;orthogonalLoop=1;jettySize=auto;html=1;" edge="1" parent="1" source="BrPFHCt6p-SdHY6ByWUd-5" target="BrPFHCt6p-SdHY6ByWUd-4">
          <mxGeometry relative="1" as="geometry" />
        </mxCell>
        <mxCell id="BrPFHCt6p-SdHY6ByWUd-10" style="edgeStyle=orthogonalEdgeStyle;rounded=0;orthogonalLoop=1;jettySize=auto;html=1;entryX=1;entryY=0.5;entryDx=0;entryDy=0;dashed=1;" edge="1" parent="1" source="BrPFHCt6p-SdHY6ByWUd-5" target="BrPFHCt6p-SdHY6ByWUd-6">
          <mxGeometry relative="1" as="geometry" />
        </mxCell>
        <mxCell id="BrPFHCt6p-SdHY6ByWUd-5" value="CoreBackend" style="whiteSpace=wrap;html=1;" vertex="1" parent="1">
          <mxGeometry x="460" y="380" width="120" height="60" as="geometry" />
        </mxCell>
        <mxCell id="BrPFHCt6p-SdHY6ByWUd-14" style="edgeStyle=orthogonalEdgeStyle;rounded=0;orthogonalLoop=1;jettySize=auto;html=1;" edge="1" parent="1" source="BrPFHCt6p-SdHY6ByWUd-6" target="BrPFHCt6p-SdHY6ByWUd-13">
          <mxGeometry relative="1" as="geometry" />
        </mxCell>
        <mxCell id="BrPFHCt6p-SdHY6ByWUd-6" value="WalletBackend" style="whiteSpace=wrap;html=1;" vertex="1" parent="1">
          <mxGeometry x="220" y="500" width="156" height="70" as="geometry" />
        </mxCell>
        <mxCell id="BrPFHCt6p-SdHY6ByWUd-9" value="Содержит в себе сделки,&lt;div&gt;&amp;nbsp;ордеры, регистрацию&lt;/div&gt;" style="text;html=1;align=center;verticalAlign=middle;resizable=0;points=[];autosize=1;strokeColor=none;fillColor=none;" vertex="1" parent="1">
          <mxGeometry x="620" y="580" width="170" height="40" as="geometry" />
        </mxCell>
        <mxCell id="BrPFHCt6p-SdHY6ByWUd-11" value="Secure" style="text;html=1;align=center;verticalAlign=middle;resizable=0;points=[];autosize=1;strokeColor=none;fillColor=none;" vertex="1" parent="1">
          <mxGeometry x="354" y="450" width="60" height="30" as="geometry" />
        </mxCell>
        <mxCell id="BrPFHCt6p-SdHY6ByWUd-13" value="WalletDB" style="shape=cylinder3;whiteSpace=wrap;html=1;boundedLbl=1;backgroundOutline=1;size=15;" vertex="1" parent="1">
          <mxGeometry x="268" y="610" width="60" height="80" as="geometry" />
        </mxCell>
        <mxCell id="BrPFHCt6p-SdHY6ByWUd-16" style="edgeStyle=orthogonalEdgeStyle;rounded=0;orthogonalLoop=1;jettySize=auto;html=1;entryX=0.5;entryY=1;entryDx=0;entryDy=0;dashed=1;exitX=0.75;exitY=0;exitDx=0;exitDy=0;" edge="1" parent="1" source="BrPFHCt6p-SdHY6ByWUd-5" target="BrPFHCt6p-SdHY6ByWUd-15">
          <mxGeometry relative="1" as="geometry" />
        </mxCell>
        <mxCell id="BrPFHCt6p-SdHY6ByWUd-15" value="Auth-Service" style="whiteSpace=wrap;html=1;" vertex="1" parent="1">
          <mxGeometry x="590" y="280" width="120" height="60" as="geometry" />
        </mxCell>
        <mxCell id="BrPFHCt6p-SdHY6ByWUd-20" value="Данные по юзеру - его страховому балансу" style="text;html=1;align=center;verticalAlign=middle;resizable=0;points=[];autosize=1;strokeColor=none;fillColor=none;" vertex="1" parent="1">
          <mxGeometry x="163" y="700" width="270" height="30" as="geometry" />
        </mxCell>
        <mxCell id="BrPFHCt6p-SdHY6ByWUd-22" value="Страховой баланс мы храним у себя" style="text;html=1;align=center;verticalAlign=middle;resizable=0;points=[];autosize=1;strokeColor=none;fillColor=none;" vertex="1" parent="1">
          <mxGeometry x="180" y="720" width="230" height="30" as="geometry" />
        </mxCell>
      </root>
    </mxGraphModel>
  </diagram>
</mxfile>
